<svg width="131" height="130" viewBox="0 0 131 130" fill="none" xmlns="http://www.w3.org/2000/svg">
<path d="M6.33586 93.14C5.40253 93.14 4.56253 92.98 3.81586 92.66C3.06919 92.3267 2.48253 91.86 2.05586 91.26C1.62919 90.66 1.41586 89.96 1.41586 89.16H3.85586C3.90919 89.76 4.14253 90.2533 4.55586 90.64C4.98253 91.0267 5.57586 91.22 6.33586 91.22C7.12253 91.22 7.73586 91.0333 8.17586 90.66C8.61586 90.2733 8.83586 89.78 8.83586 89.18C8.83586 88.7133 8.69586 88.3333 8.41586 88.04C8.14919 87.7467 7.80919 87.52 7.39586 87.36C6.99586 87.2 6.43586 87.0267 5.71586 86.84C4.80919 86.6 4.06919 86.36 3.49586 86.12C2.93586 85.8667 2.45586 85.48 2.05586 84.96C1.65586 84.44 1.45586 83.7467 1.45586 82.88C1.45586 82.08 1.65586 81.38 2.05586 80.78C2.45586 80.18 3.01586 79.72 3.73586 79.4C4.45586 79.08 5.28919 78.92 6.23586 78.92C7.58253 78.92 8.68253 79.26 9.53586 79.94C10.4025 80.6067 10.8825 81.5267 10.9759 82.7H8.45586C8.41586 82.1933 8.17586 81.76 7.73586 81.4C7.29586 81.04 6.71586 80.86 5.99586 80.86C5.34253 80.86 4.80919 81.0267 4.39586 81.36C3.98253 81.6933 3.77586 82.1733 3.77586 82.8C3.77586 83.2267 3.90253 83.58 4.15586 83.86C4.42253 84.1267 4.75586 84.34 5.15586 84.5C5.55586 84.66 6.10253 84.8333 6.79586 85.02C7.71586 85.2733 8.46253 85.5267 9.03586 85.78C9.62253 86.0333 10.1159 86.4267 10.5159 86.96C10.9292 87.48 11.1359 88.18 11.1359 89.06C11.1359 89.7667 10.9425 90.4333 10.5559 91.06C10.1825 91.6867 9.62919 92.1933 8.89586 92.58C8.17586 92.9533 7.32253 93.14 6.33586 93.14ZM23.9262 87.22C23.9262 87.6333 23.8995 88.0067 23.8462 88.34H15.4262C15.4928 89.22 15.8195 89.9267 16.4062 90.46C16.9928 90.9933 17.7128 91.26 18.5662 91.26C19.7928 91.26 20.6595 90.7467 21.1662 89.72H23.6262C23.2928 90.7333 22.6862 91.5667 21.8062 92.22C20.9395 92.86 19.8595 93.18 18.5662 93.18C17.5128 93.18 16.5662 92.9467 15.7262 92.48C14.8995 92 14.2462 91.3333 13.7662 90.48C13.2995 89.6133 13.0662 88.6133 13.0662 87.48C13.0662 86.3467 13.2928 85.3533 13.7462 84.5C14.2128 83.6333 14.8595 82.9667 15.6862 82.5C16.5262 82.0333 17.4862 81.8 18.5662 81.8C19.6062 81.8 20.5328 82.0267 21.3462 82.48C22.1595 82.9333 22.7928 83.5733 23.2462 84.4C23.6995 85.2133 23.9262 86.1533 23.9262 87.22ZM21.5462 86.5C21.5328 85.66 21.2328 84.9867 20.6462 84.48C20.0595 83.9733 19.3328 83.72 18.4662 83.72C17.6795 83.72 17.0062 83.9733 16.4462 84.48C15.8862 84.9733 15.5528 85.6467 15.4462 86.5H21.5462ZM28.4499 78.2V93H26.1699V78.2H28.4499ZM33.7234 78.2V93H31.4434V78.2H33.7234ZM46.8168 87.22C46.8168 87.6333 46.7901 88.0067 46.7368 88.34H38.3168C38.3835 89.22 38.7101 89.9267 39.2968 90.46C39.8835 90.9933 40.6035 91.26 41.4568 91.26C42.6835 91.26 43.5501 90.7467 44.0568 89.72H46.5168C46.1835 90.7333 45.5768 91.5667 44.6968 92.22C43.8301 92.86 42.7501 93.18 41.4568 93.18C40.4035 93.18 39.4568 92.9467 38.6168 92.48C37.7901 92 37.1368 91.3333 36.6568 90.48C36.1901 89.6133 35.9568 88.6133 35.9568 87.48C35.9568 86.3467 36.1835 85.3533 36.6368 84.5C37.1035 83.6333 37.7501 82.9667 38.5768 82.5C39.4168 82.0333 40.3768 81.8 41.4568 81.8C42.4968 81.8 43.4235 82.0267 44.2368 82.48C45.0501 82.9333 45.6835 83.5733 46.1368 84.4C46.5901 85.2133 46.8168 86.1533 46.8168 87.22ZM44.4368 86.5C44.4235 85.66 44.1235 84.9867 43.5368 84.48C42.9501 83.9733 42.2235 83.72 41.3568 83.72C40.5701 83.72 39.8968 83.9733 39.3368 84.48C38.7768 84.9733 38.4435 85.6467 38.3368 86.5H44.4368ZM51.3405 83.58C51.6739 83.02 52.1139 82.5867 52.6605 82.28C53.2205 81.96 53.8805 81.8 54.6405 81.8V84.16H54.0605C53.1672 84.16 52.4872 84.3867 52.0205 84.84C51.5672 85.2933 51.3405 86.08 51.3405 87.2V93H49.0605V81.98H51.3405V83.58ZM71.9916 83.1C71.6316 82.4067 71.1316 81.8867 70.4916 81.54C69.8516 81.18 69.1116 81 68.2716 81C67.3516 81 66.5316 81.2067 65.8116 81.62C65.0916 82.0333 64.525 82.62 64.1116 83.38C63.7116 84.14 63.5116 85.02 63.5116 86.02C63.5116 87.02 63.7116 87.9067 64.1116 88.68C64.525 89.44 65.0916 90.0267 65.8116 90.44C66.5316 90.8533 67.3516 91.06 68.2716 91.06C69.5116 91.06 70.5183 90.7133 71.2916 90.02C72.065 89.3267 72.5383 88.3867 72.7116 87.2H67.4916V85.38H75.1516V87.16C75.005 88.24 74.6183 89.2333 73.9916 90.14C73.3783 91.0467 72.5716 91.7733 71.5716 92.32C70.585 92.8533 69.485 93.12 68.2716 93.12C66.965 93.12 65.7716 92.82 64.6916 92.22C63.6116 91.6067 62.7516 90.76 62.1116 89.68C61.485 88.6 61.1716 87.38 61.1716 86.02C61.1716 84.66 61.485 83.44 62.1116 82.36C62.7516 81.28 63.6116 80.44 64.6916 79.84C65.785 79.2267 66.9783 78.92 68.2716 78.92C69.7516 78.92 71.065 79.2867 72.2116 80.02C73.3716 80.74 74.2116 81.7667 74.7316 83.1H71.9916ZM87.3804 81.98V93H85.1004V91.7C84.7404 92.1533 84.2671 92.5133 83.6804 92.78C83.1071 93.0333 82.4937 93.16 81.8404 93.16C80.9737 93.16 80.1937 92.98 79.5004 92.62C78.8204 92.26 78.2804 91.7267 77.8804 91.02C77.4937 90.3133 77.3004 89.46 77.3004 88.46V81.98H79.5604V88.12C79.5604 89.1067 79.8071 89.8667 80.3004 90.4C80.7937 90.92 81.4671 91.18 82.3204 91.18C83.1737 91.18 83.8471 90.92 84.3404 90.4C84.8471 89.8667 85.1004 89.1067 85.1004 88.12V81.98H87.3804ZM91.5487 80.52C91.1353 80.52 90.7887 80.38 90.5087 80.1C90.2287 79.82 90.0887 79.4733 90.0887 79.06C90.0887 78.6467 90.2287 78.3 90.5087 78.02C90.7887 77.74 91.1353 77.6 91.5487 77.6C91.9487 77.6 92.2887 77.74 92.5687 78.02C92.8487 78.3 92.9887 78.6467 92.9887 79.06C92.9887 79.4733 92.8487 79.82 92.5687 80.1C92.2887 80.38 91.9487 80.52 91.5487 80.52ZM92.6687 81.98V93H90.3887V81.98H92.6687ZM94.9021 87.44C94.9021 86.3333 95.1288 85.3533 95.5821 84.5C96.0488 83.6467 96.6754 82.9867 97.4621 82.52C98.2621 82.04 99.1488 81.8 100.122 81.8C100.842 81.8 101.549 81.96 102.242 82.28C102.949 82.5867 103.509 83 103.922 83.52V78.2H106.222V93H103.922V91.34C103.549 91.8733 103.029 92.3133 102.362 92.66C101.709 93.0067 100.955 93.18 100.102 93.18C99.1421 93.18 98.2621 92.94 97.4621 92.46C96.6754 91.9667 96.0488 91.2867 95.5821 90.42C95.1288 89.54 94.9021 88.5467 94.9021 87.44ZM103.922 87.48C103.922 86.72 103.762 86.06 103.442 85.5C103.135 84.94 102.729 84.5133 102.222 84.22C101.715 83.9267 101.169 83.78 100.582 83.78C99.9954 83.78 99.4488 83.9267 98.9421 84.22C98.4354 84.5 98.0221 84.92 97.7021 85.48C97.3954 86.0267 97.2421 86.68 97.2421 87.44C97.2421 88.2 97.3954 88.8667 97.7021 89.44C98.0221 90.0133 98.4354 90.4533 98.9421 90.76C99.4621 91.0533 100.009 91.2 100.582 91.2C101.169 91.2 101.715 91.0533 102.222 90.76C102.729 90.4667 103.135 90.04 103.442 89.48C103.762 88.9067 103.922 88.24 103.922 87.48ZM119.317 87.22C119.317 87.6333 119.29 88.0067 119.237 88.34H110.817C110.883 89.22 111.21 89.9267 111.797 90.46C112.383 90.9933 113.103 91.26 113.957 91.26C115.183 91.26 116.05 90.7467 116.557 89.72H119.017C118.683 90.7333 118.077 91.5667 117.197 92.22C116.33 92.86 115.25 93.18 113.957 93.18C112.903 93.18 111.957 92.9467 111.117 92.48C110.29 92 109.637 91.3333 109.157 90.48C108.69 89.6133 108.457 88.6133 108.457 87.48C108.457 86.3467 108.683 85.3533 109.137 84.5C109.603 83.6333 110.25 82.9667 111.077 82.5C111.917 82.0333 112.877 81.8 113.957 81.8C114.997 81.8 115.923 82.0267 116.737 82.48C117.55 82.9333 118.183 83.5733 118.637 84.4C119.09 85.2133 119.317 86.1533 119.317 87.22ZM116.937 86.5C116.923 85.66 116.623 84.9867 116.037 84.48C115.45 83.9733 114.723 83.72 113.857 83.72C113.07 83.72 112.397 83.9733 111.837 84.48C111.277 84.9733 110.943 85.6467 110.837 86.5H116.937ZM125.561 93.18C124.694 93.18 123.914 93.0267 123.221 92.72C122.541 92.4 122.001 91.9733 121.601 91.44C121.201 90.8933 120.987 90.2867 120.961 89.62H123.321C123.361 90.0867 123.581 90.48 123.981 90.8C124.394 91.1067 124.907 91.26 125.521 91.26C126.161 91.26 126.654 91.14 127.001 90.9C127.361 90.6467 127.541 90.3267 127.541 89.94C127.541 89.5267 127.341 89.22 126.941 89.02C126.554 88.82 125.934 88.6 125.081 88.36C124.254 88.1333 123.581 87.9133 123.061 87.7C122.541 87.4867 122.087 87.16 121.701 86.72C121.327 86.28 121.141 85.7 121.141 84.98C121.141 84.3933 121.314 83.86 121.661 83.38C122.007 82.8867 122.501 82.5 123.141 82.22C123.794 81.94 124.541 81.8 125.381 81.8C126.634 81.8 127.641 82.12 128.401 82.76C129.174 83.3867 129.587 84.2467 129.641 85.34H127.361C127.321 84.8467 127.121 84.4533 126.761 84.16C126.401 83.8667 125.914 83.72 125.301 83.72C124.701 83.72 124.241 83.8333 123.921 84.06C123.601 84.2867 123.441 84.5867 123.441 84.96C123.441 85.2533 123.547 85.5 123.761 85.7C123.974 85.9 124.234 86.06 124.541 86.18C124.847 86.2867 125.301 86.4267 125.901 86.6C126.701 86.8133 127.354 87.0333 127.861 87.26C128.381 87.4733 128.827 87.7933 129.201 88.22C129.574 88.6467 129.767 89.2133 129.781 89.92C129.781 90.5467 129.607 91.1067 129.261 91.6C128.914 92.0933 128.421 92.48 127.781 92.76C127.154 93.04 126.414 93.18 125.561 93.18Z" fill="#3B3C45"/>
<path d="M77 23C69.832 23 64 28.832 64 36C64 43.168 69.832 49 77 49C84.168 49 90 43.168 90 36C90 28.832 84.168 23 77 23ZM76.75 34.5H77.25C79.318 34.5 81 36.182 81 38.25C81 39.876 79.952 41.252 78.5 41.77V42.5C78.5 43.328 77.828 44 77 44C76.172 44 75.5 43.328 75.5 42.5V42H74.5C73.672 42 73 41.328 73 40.5C73 39.672 73.672 39 74.5 39H77.25C77.664 39 78 38.664 78 38.25C78 37.836 77.664 37.5 77.25 37.5H76.75C74.682 37.5 73 35.818 73 33.75C73 32.124 74.048 30.748 75.5 30.23V29.5C75.5 28.672 76.172 28 77 28C77.828 28 78.5 28.672 78.5 29.5V30H79.5C80.328 30 81 30.672 81 31.5C81 32.328 80.328 33 79.5 33H76.75C76.336 33 76 33.336 76 33.75C76 34.164 76.336 34.5 76.75 34.5Z" fill="#F7A804"/>
<path d="M76 12.916V5.00004C76 3.89404 75.104 3.00004 74 3.00004C72.896 3.00004 72 3.89404 72 5.00004V9.00404L64.398 1.57004C63.62 0.808035 62.378 0.808035 61.602 1.57004L42.878 19.874C42.32 20.438 42 21.212 42 22C42 23.654 43.346 25 45 25H48V36C48 38.758 50.244 41 53 41H58C59.104 41 60 40.106 60 39C60 37.894 59.104 37 58 37H53C52.448 37 52 36.55 52 36V23C52 21.894 51.104 21 50 21H47.446L63 5.79604L76.102 18.608C76.894 19.382 78.158 19.368 78.93 18.576C79.702 17.786 79.688 16.52 78.898 15.748L76 12.916Z" fill="#3B3C45"/>
<path d="M21.1394 112.228V122H19.1794V117.842H14.9934V122H13.0334V112.228H14.9934V116.246H19.1794V112.228H21.1394ZM26.5125 122.126C25.7659 122.126 25.0939 121.963 24.4965 121.636C23.8992 121.3 23.4279 120.829 23.0825 120.222C22.7465 119.615 22.5785 118.915 22.5785 118.122C22.5785 117.329 22.7512 116.629 23.0965 116.022C23.4512 115.415 23.9319 114.949 24.5385 114.622C25.1452 114.286 25.8219 114.118 26.5685 114.118C27.3152 114.118 27.9919 114.286 28.5985 114.622C29.2052 114.949 29.6812 115.415 30.0265 116.022C30.3812 116.629 30.5585 117.329 30.5585 118.122C30.5585 118.915 30.3765 119.615 30.0125 120.222C29.6579 120.829 29.1725 121.3 28.5565 121.636C27.9499 121.963 27.2685 122.126 26.5125 122.126ZM26.5125 120.418C26.8672 120.418 27.1985 120.334 27.5065 120.166C27.8239 119.989 28.0759 119.727 28.2625 119.382C28.4492 119.037 28.5425 118.617 28.5425 118.122C28.5425 117.385 28.3465 116.82 27.9545 116.428C27.5719 116.027 27.1005 115.826 26.5405 115.826C25.9805 115.826 25.5092 116.027 25.1265 116.428C24.7532 116.82 24.5665 117.385 24.5665 118.122C24.5665 118.859 24.7485 119.429 25.1125 119.83C25.4859 120.222 25.9525 120.418 26.5125 120.418ZM42.7483 114.244L40.4803 122H38.3663L36.9523 116.582L35.5383 122H33.4103L31.1283 114.244H33.1163L34.4883 120.152L35.9723 114.244H38.0443L39.5003 120.138L40.8723 114.244H42.7483ZM49.4267 115.854V119.606C49.4267 119.867 49.4874 120.059 49.6087 120.18C49.7394 120.292 49.954 120.348 50.2527 120.348H51.1627V122H49.9307C48.2787 122 47.4527 121.197 47.4527 119.592V115.854H46.5287V114.244H47.4527V112.326H49.4267V114.244H51.1627V115.854H49.4267ZM56.0164 122.126C55.2698 122.126 54.5978 121.963 54.0004 121.636C53.4031 121.3 52.9318 120.829 52.5864 120.222C52.2504 119.615 52.0824 118.915 52.0824 118.122C52.0824 117.329 52.2551 116.629 52.6004 116.022C52.9551 115.415 53.4358 114.949 54.0424 114.622C54.6491 114.286 55.3258 114.118 56.0724 114.118C56.8191 114.118 57.4958 114.286 58.1024 114.622C58.7091 114.949 59.1851 115.415 59.5304 116.022C59.8851 116.629 60.0624 117.329 60.0624 118.122C60.0624 118.915 59.8804 119.615 59.5164 120.222C59.1618 120.829 58.6764 121.3 58.0604 121.636C57.4538 121.963 56.7724 122.126 56.0164 122.126ZM56.0164 120.418C56.3711 120.418 56.7024 120.334 57.0104 120.166C57.3278 119.989 57.5798 119.727 57.7664 119.382C57.9531 119.037 58.0464 118.617 58.0464 118.122C58.0464 117.385 57.8504 116.82 57.4584 116.428C57.0758 116.027 56.6044 115.826 56.0444 115.826C55.4844 115.826 55.0131 116.027 54.6304 116.428C54.2571 116.82 54.0704 117.385 54.0704 118.122C54.0704 118.859 54.2524 119.429 54.6164 119.83C54.9898 120.222 55.4564 120.418 56.0164 120.418ZM67.8041 122.126C67.1695 122.126 66.6001 122.014 66.0961 121.79C65.5921 121.557 65.1908 121.244 64.8921 120.852C64.6028 120.46 64.4441 120.026 64.4161 119.55H66.3901C66.4275 119.849 66.5721 120.096 66.8241 120.292C67.0855 120.488 67.4075 120.586 67.7901 120.586C68.1635 120.586 68.4528 120.511 68.6581 120.362C68.8728 120.213 68.9801 120.021 68.9801 119.788C68.9801 119.536 68.8495 119.349 68.5881 119.228C68.3361 119.097 67.9301 118.957 67.3701 118.808C66.7915 118.668 66.3155 118.523 65.9421 118.374C65.5781 118.225 65.2608 117.996 64.9901 117.688C64.7288 117.38 64.5981 116.965 64.5981 116.442C64.5981 116.013 64.7195 115.621 64.9621 115.266C65.2141 114.911 65.5688 114.631 66.0261 114.426C66.4928 114.221 67.0388 114.118 67.6641 114.118C68.5881 114.118 69.3255 114.351 69.8761 114.818C70.4268 115.275 70.7301 115.896 70.7861 116.68H68.9101C68.8821 116.372 68.7515 116.129 68.5181 115.952C68.2941 115.765 67.9908 115.672 67.6081 115.672C67.2535 115.672 66.9781 115.737 66.7821 115.868C66.5955 115.999 66.5021 116.181 66.5021 116.414C66.5021 116.675 66.6328 116.876 66.8941 117.016C67.1555 117.147 67.5615 117.282 68.1121 117.422C68.6721 117.562 69.1341 117.707 69.4981 117.856C69.8621 118.005 70.1748 118.239 70.4361 118.556C70.7068 118.864 70.8468 119.275 70.8561 119.788C70.8561 120.236 70.7301 120.637 70.4781 120.992C70.2355 121.347 69.8808 121.627 69.4141 121.832C68.9568 122.028 68.4201 122.126 67.8041 122.126ZM79.675 117.954C79.675 118.234 79.6564 118.486 79.619 118.71H73.949C73.9957 119.27 74.1917 119.709 74.537 120.026C74.8824 120.343 75.307 120.502 75.811 120.502C76.539 120.502 77.057 120.189 77.365 119.564H79.479C79.255 120.311 78.8257 120.927 78.191 121.412C77.5564 121.888 76.777 122.126 75.853 122.126C75.1064 122.126 74.4344 121.963 73.837 121.636C73.249 121.3 72.787 120.829 72.451 120.222C72.1244 119.615 71.961 118.915 71.961 118.122C71.961 117.319 72.1244 116.615 72.451 116.008C72.7777 115.401 73.235 114.935 73.823 114.608C74.411 114.281 75.0877 114.118 75.853 114.118C76.5904 114.118 77.2484 114.277 77.827 114.594C78.415 114.911 78.8677 115.364 79.185 115.952C79.5117 116.531 79.675 117.198 79.675 117.954ZM77.645 117.394C77.6357 116.89 77.4537 116.489 77.099 116.19C76.7444 115.882 76.3104 115.728 75.797 115.728C75.3117 115.728 74.901 115.877 74.565 116.176C74.2384 116.465 74.0377 116.871 73.963 117.394H77.645ZM83.0656 111.64V122H81.1056V111.64H83.0656ZM86.9621 111.64V122H85.0021V111.64H86.9621Z" fill="#0689FF"/>
<path d="M117.24 121.68C117.113 121.85 116.923 121.962 116.713 121.992C116.503 122.022 116.29 121.967 116.12 121.84C115.95 121.713 115.838 121.523 115.808 121.313C115.778 121.103 115.833 120.89 115.96 120.72L117.4 118.8L96.8 118.8C96.5878 118.8 96.3843 118.716 96.2343 118.566C96.0843 118.416 96 118.212 96 118C96 117.788 96.0843 117.584 96.2343 117.434C96.3843 117.284 96.5878 117.2 96.8 117.2L117.4 117.2L115.96 115.28C115.897 115.196 115.851 115.1 115.825 114.999C115.799 114.897 115.793 114.791 115.808 114.687C115.823 114.583 115.858 114.483 115.912 114.392C115.965 114.302 116.036 114.223 116.12 114.16C116.204 114.097 116.3 114.051 116.401 114.025C116.503 113.999 116.609 113.993 116.713 114.008C116.817 114.023 116.917 114.058 117.008 114.112C117.098 114.165 117.177 114.236 117.24 114.32L119.635 117.514L119.646 117.527L120 118L119.646 118.472L119.635 118.486L117.24 121.68Z" fill="#0689FF"/>
</svg>
